<mxfile host="app.diagrams.net" modified="2023-04-19T12:16:25.976Z" agent="Mozilla/5.0 (Windows NT 10.0; Win64; x64) AppleWebKit/537.36 (KHTML, like Gecko) Chrome/112.0.0.0 Safari/537.36" version="21.1.8" etag="cRWLltaOBxWF7QLWPBaK" type="github">
  <diagram name="PÃ¡gina-1" id="7qSVQ9nJByxiUOD_JyTO">
    <mxGraphModel>
      <root>
        <mxCell id="0" />
        <mxCell id="1" parent="0" />
      </root>
    </mxGraphModel>
  </diagram>
</mxfile>
